HIERARCHY
ROOT Hips
{
    OFFSET 0.0 0.0 0.0
    CHANNELS 6 Xposition Yposition Zposition Zrotation Xrotation Yrotation
    JOINT Spine
    {
        OFFSET 0.0 5.0 0.0
        CHANNELS 3 Zrotation Xrotation Yrotation
        JOINT Chest
        {
            OFFSET 0.0 5.0 0.0
            CHANNELS 3 Zrotation Xrotation Yrotation
            JOINT Neck
            {
                OFFSET 0.0 8.0 0.0
                CHANNELS 3 Zrotation Xrotation Yrotation
                JOINT Head
                {
                    OFFSET 0.0 5.0 0.0
                    CHANNELS 3 Zrotation Xrotation Yrotation
                    End Site
                    {
                        OFFSET 0.0 3.0 0.0
                    }
                }
            }
            JOINT LeftShoulder
            {
                OFFSET -5.0 0.0 0.0
                CHANNELS 3 Zrotation Xrotation Yrotation
                JOINT LeftArm
                {
                    OFFSET 0.0 -10.0 0.0
                    CHANNELS 3 Zrotation Xrotation Yrotation
                    JOINT LeftForeArm
                    {
                        OFFSET 0.0 -10.0 0.0
                        CHANNELS 3 Zrotation Xrotation Yrotation
                        End Site
                        {
                            OFFSET 0.0 -3.0 0.0
                        }
                    }
                }
            }
        }
    }
}

MOTION
Frames: 26
Frame Time: 0.033333
970.000000 442.938926 127.664760 0.000000 0.000000 0.000000 0.000000 0.000000 0.000000 29.678605 8.479368 0.000000 180.000000 -3.564018 0.000000 29.744881 13.629514 -0.000000 150.255119 5.115694 30.000000 19.983107 -0.451368 0.000000 18.000000 -0.100111 0.000000
1354.522934 467.411410 121.575628 0.000000 0.000000 0.000000 0.000000 0.000000 0.000000 150.622570 5.482464 4.973798 -29.377430 -8.067250 4.973798 140.176400 7.324757 3.759997 -12.221629 1.098600 29.763441 132.794256 -8.286199 -3.759997 -2.626015 0.312569 0.313953
969.997807 442.887864 125.435359 0.000000 0.000000 0.000000 0.000000 0.000000 0.000000 31.061399 -30.811856 9.635073 180.000000 10.188670 9.635073 30.285790 2.582074 7.460697 149.714210 22.032809 29.057495 19.151579 -4.407124 -7.460697 18.000000 -0.321256 0.626666
1246.736984 514.278152 101.744631 0.000000 0.000000 0.000000 0.000000 0.000000 0.000000 143.557092 -3.596135 13.690942 -36.442908 6.437789 13.690942 133.761037 -4.972165 11.043737 -156.950665 -5.207991 27.893295 0.000000 0.000000 0.000000 1.928484 0.485462 0.936907
1245.221100 458.637464 106.504929 0.000000 0.000000 0.000000 0.000000 0.000000 0.000000 160.701064 17.391950 16.886559 -19.298936 -13.293297 16.886559 140.193827 1.637718 14.452610 -157.554825 -5.858277 26.289200 29.500467 4.715325 -14.452610 -15.049953 -0.471532 1.243449
1257.365570 418.514181 114.082477 0.000000 0.000000 0.000000 0.000000 0.000000 0.000000 -143.710676 -0.932635 19.021130 36.289324 12.668181 19.021130 163.220413 2.258503 17.633558 11.688054 -3.909519 24.270510 152.038385 1.972722 -17.633558 -2.339948 0.069048 1.545085
1275.099564 408.163741 120.002739 0.000000 0.000000 0.000000 0.000000 0.000000 0.000000 -132.929531 14.941080 19.960535 47.070469 -19.135728 19.960535 173.491912 1.417514 20.536413 -160.709681 -5.790068 21.869059 33.138793 5.546374 -20.536413 -14.686121 -0.554637 1.840623
1290.611115 384.880857 111.709351 0.000000 0.000000 0.000000 0.000000 0.000000 0.000000 -132.705235 -3.497165 19.645745 47.294765 3.414995 19.645745 -173.778854 1.564420 23.115397 20.496835 5.074106 19.122720 -161.220290 -4.490305 -23.115397 1.723235 0.345306 2.128896
1302.817154 380.305352 98.066896 0.000000 0.000000 0.000000 0.000000 0.000000 0.000000 -131.493915 -3.856914 18.096541 48.506085 4.165548 18.096541 -165.393697 -0.501431 25.329838 23.154815 0.473776 16.074804 -178.200316 1.339219 -25.329838 0.138141 0.059034 2.408768
1304.997711 379.563582 98.573351 0.000000 0.000000 0.000000 0.000000 0.000000 0.000000 -126.727972 -1.189950 15.410265 53.272028 1.761416 15.410265 -160.219593 -1.784005 27.144812 28.448880 0.233952 12.773379 -174.368770 -1.609741 -27.144812 0.079526 0.270070 2.679134
1311.668472 386.890390 88.824377 0.000000 0.000000 0.000000 0.000000 0.000000 0.000000 -122.308728 7.575082 11.755705 57.691272 -1.959992 11.755705 -158.801130 -0.684129 28.531695 150.942637 -5.648114 9.270510 -154.878332 -4.132650 -28.531695 2.695409 0.593265 2.938926
1305.131836 395.180186 100.731555 0.000000 0.000000 0.000000 0.000000 0.000000 0.000000 -125.112810 5.289459 7.362491 54.887190 10.473076 7.362491 -146.487292 -0.067338 29.468618 -175.167369 -0.264343 5.621439 -159.224034 -3.978943 -29.468618 1.782042 0.479955 3.187120
1296.320457 392.734526 57.368357 0.000000 0.000000 0.000000 0.000000 0.000000 0.000000 -131.035750 -11.143621 2.506665 48.964250 -0.143359 2.506665 -128.969563 4.238330 29.940802 38.856147 6.457553 1.883716 -134.776850 -2.389903 -29.940802 3.458429 0.078408 3.422736
1306.963577 386.612041 66.060216 0.000000 0.000000 0.000000 0.000000 0.000000 0.000000 -124.469622 11.505477 -2.506665 55.530378 -19.517864 -2.506665 -109.994856 3.774381 29.940802 37.691309 -6.850614 -1.883716 -118.274788 -0.795645 -29.940802 5.098336 0.285076 3.644843
969.892723 442.572198 87.507068 0.000000 0.000000 0.000000 0.000000 0.000000 0.000000 41.287575 -33.016626 -7.362491 180.000000 5.015797 -7.362491 30.974696 11.782002 29.468618 149.025304 14.356434 -5.621439 15.072869 -5.979574 -29.468618 18.000000 0.012050 3.852566
969.876883 442.545207 59.640423 0.000000 0.000000 0.000000 0.000000 0.000000 0.000000 42.241956 -16.350596 -11.755705 180.000000 9.721611 -11.755705 30.826133 -5.662932 28.531695 149.173867 10.578014 -9.270510 14.823070 -8.178643 -28.531695 18.000000 0.325252 4.045085
969.859960 442.518116 58.057737 0.000000 0.000000 0.000000 0.000000 0.000000 0.000000 43.199779 27.822840 -15.410265 180.000000 -4.194977 -15.410265 30.649504 12.977539 27.144812 149.350496 -9.527842 -12.773379 14.587557 1.334714 -27.144812 18.000000 0.357181 4.221640
969.841956 442.490926 48.726251 0.000000 0.000000 0.000000 0.000000 0.000000 0.000000 44.157210 -7.317284 -18.096541 180.000000 4.341159 -18.096541 30.446417 -11.782915 25.329838 149.553583 1.346943 -16.074804 14.366154 0.687273 -25.329838 18.000000 0.084230 4.381533
969.822873 442.463637 41.213222 0.000000 0.000000 0.000000 0.000000 0.000000 0.000000 45.110117 35.793157 -19.645745 180.000000 -7.352455 -19.645745 30.218633 -11.476318 23.115397 149.781367 -2.064772 -19.122720 14.158653 2.619172 -23.115397 18.000000 -0.536061 4.524135
969.802712 442.436251 53.054704 0.000000 0.000000 0.000000 0.000000 0.000000 0.000000 46.054109 18.544306 -19.960535 180.000000 -4.909457 -19.960535 29.968037 -1.134557 20.536413 150.031963 -2.864196 -21.869059 13.964823 -1.564146 -20.536413 18.000000 0.009716 4.648882
1187.040939 541.658249 74.999262 0.000000 0.000000 0.000000 0.000000 0.000000 0.000000 82.806623 21.523296 -19.021130 -97.193377 10.572260 -19.021130 45.395981 -4.996421 17.633558 -156.144455 -2.735666 -24.270510 0.000000 0.000000 0.000000 0.000000 0.000000 0.000000
1182.242889 522.024286 56.021269 0.000000 0.000000 0.000000 0.000000 0.000000 0.000000 -105.721938 24.092419 -16.886559 74.278062 -21.544095 -16.886559 -155.708006 -1.879310 14.452610 -157.302521 -2.742910 -26.289200 0.000000 0.000000 0.000000 2.684983 0.298278 4.842916
1180.914459 527.065626 49.123444 0.000000 0.000000 0.000000 0.000000 0.000000 0.000000 88.055617 -3.167921 -13.690942 -91.944383 1.019435 -13.690942 -158.862018 -2.002096 11.043737 -151.747289 -1.743962 -27.893295 0.000000 0.000000 0.000000 0.000000 0.000000 0.000000
1236.800194 541.387432 58.270115 0.000000 0.000000 0.000000 0.000000 0.000000 0.000000 -85.588400 0.432556 -9.635073 94.411600 -6.399048 -9.635073 -159.297106 -2.895020 7.460697 -157.915391 -2.458546 -29.057495 26.607362 2.772813 -7.460697 14.926890 -2.564394 4.960574
1161.066513 575.006626 47.188392 0.000000 0.000000 0.000000 0.000000 0.000000 0.000000 -81.021168 -11.695732 -4.973798 98.978832 -0.451163 -4.973798 -102.851701 3.472418 3.759997 -157.041007 -2.259699 -29.763441 21.429890 2.250475 -3.759997 10.859432 0.010804 4.990134
1255.636253 512.645942 51.789627 0.000000 0.000000 0.000000 0.000000 0.000000 0.000000 77.832564 -5.348280 -0.000000 -102.167436 5.373202 -0.000000 -158.264834 -2.333757 0.000000 -130.745502 0.533856 -30.000000 -157.699225 -1.988730 -0.000000 0.000000 0.000000 0.000000
